# xmcd
#
# Track frame offsets: 
#        150
#        11035
#        20375
#        31257
#        45051
#        64273
#        74982
#        87848
#        100602
#        118999
#        129246
#        139955
#        154965
#        167514
#        179050
#        181636
#        184288
#        186913
#        189587
#        192201
#        194788
#        197289
#        199989
#        202600
#        205183
#        207829
#        210510
#        213168
#
# Disc length: 2872 seconds
#
# Revision: 0
# Processed by: cddbd v1.5.2PL0 Copyright (c) Steve Scherf et al.
# Submitted via: ExactAudioCopy v1.3
#
DISCID=9a0b361c
DTITLE=Bernie Marsden - Blues Rock Bad Ass'd Boogie Driven Hot Licks
DYEAR=1900
DGENRE=Blues
TTITLE0=Double Trouble
TTITLE1=Poke In Tha Butt
TTITLE2=Blood Brothers
TTITLE3=Lil' Green Land
TTITLE4=Heartbreaker
TTITLE5=Jimi Diddley
TTITLE6=Ballad Of Joliet
TTITLE7=Steal My Thunder
TTITLE8=Firewater
TTITLE9=Jellybean Jump 
TTITLE10=Like Lightnin' Strikin'
TTITLE11=Get You Shorty
TTITLE12=Memphis Dose
TTITLE13=Highway 45
TTITLE14=Street Corner Ruff Rockin' Rooster
TTITLE15=Slick Slim Slides Stateside
TTITLE16=Stax-Volt Hoochie-Coochie
TTITLE17=Mojo Talkin' Ledbeally Mooch
TTITLE18=Doctor Slo Hand, I got It Bad
TTITLE19=Hand Jiven', 2 Shave 'n' Harecut
TTITLE20=Mississippi Delta Plantation Picnic
TTITLE21=T Bone Slink and Duck Walk
TTITLE22=Psychedelic Voodoo,Neat From The Bottle22
TTITLE23=Swingtime Bluesology, A Real Cherry
TTITLE24=Jumpstart Boogie Woogie
TTITLE25=Bluesharp Shuffle 'n' Shimmy
TTITLE26=One Big Roomfull Of Blues
TTITLE27=Professor Blind's Long Tall Howlin' Blues
EXTD=
EXTT0=
EXTT1=
EXTT2=
EXTT3=
EXTT4=
EXTT5=
EXTT6=
EXTT7=
EXTT8=
EXTT9=
EXTT10=
EXTT11=
EXTT12=
EXTT13=
EXTT14=
EXTT15=
EXTT16=
EXTT17=
EXTT18=
EXTT19=
EXTT20=
EXTT21=
EXTT22=
EXTT23=
EXTT24=
EXTT25=
EXTT26=
EXTT27=
PLAYORDER=
